<svg xmlns="http://www.w3.org/2000/svg" width="95.68mm" height="65.05mm" viewBox="0 0 271.21 184.4"><title>alt-logo-v1</title><path d="M175.72,182v1.47H154.14V150.84H175.3v1.47H155.75v13.75h17.12v1.48H155.75V182Z" transform="translate(-154.14 -25.77)" fill="#242424"/><path d="M183.86,149.92h1.52V179.4a2.75,2.75,0,0,0,.83,2.12,3,3,0,0,0,2.16.78,8.82,8.82,0,0,0,1.22-.11,6.44,6.44,0,0,0,1.31-.35l.37,1.29a12.72,12.72,0,0,1-1.73.41,9.73,9.73,0,0,1-1.77.19,3.82,3.82,0,0,1-2.83-1.08,4,4,0,0,1-1.08-2.92Z" transform="translate(-154.14 -25.77)" fill="#242424"/><path d="M196.83,153.78v-3.86h1.56v3.86Zm0,29.72V159.58h1.56V183.5Z" transform="translate(-154.14 -25.77)" fill="#242424"/><path d="M213.53,184a8.18,8.18,0,0,1-5.57-2.14,7.06,7.06,0,0,1-2.25-5.22,5.42,5.42,0,0,1,.73-2.78,6.87,6.87,0,0,1,2.05-2.19,10.26,10.26,0,0,1,3.13-1.43,15.11,15.11,0,0,1,4-.5,26.78,26.78,0,0,1,4.07.32,18.15,18.15,0,0,1,3.7,1v-2.58a7.93,7.93,0,0,0-2.05-5.73,7.25,7.25,0,0,0-5.49-2.14,10.56,10.56,0,0,0-3.73.76,17.5,17.5,0,0,0-3.95,2.19l-.74-1.15c3.07-2.09,5.9-3.13,8.51-3.13a8.8,8.8,0,0,1,6.6,2.48,9.37,9.37,0,0,1,2.42,6.81V181c0,.68.27,1,.82,1v1.47a.77.77,0,0,1-.25,0h-.21A1.73,1.73,0,0,1,224,183a2,2,0,0,1-.53-1.4v-2.12a11,11,0,0,1-4.27,3.34A13.75,13.75,0,0,1,213.53,184Zm.18-1.34a13.11,13.11,0,0,0,3.43-.46,12.13,12.13,0,0,0,3.1-1.26A8.46,8.46,0,0,0,222.5,179a3.51,3.51,0,0,0,.87-2.26v-4.51a21.08,21.08,0,0,0-7.63-1.38,13.26,13.26,0,0,0-3.45.42,9.12,9.12,0,0,0-2.7,1.15,5.43,5.43,0,0,0-1.74,1.77,4.36,4.36,0,0,0-.62,2.32,5.6,5.6,0,0,0,.5,2.39,6.36,6.36,0,0,0,1.38,1.94,6.18,6.18,0,0,0,2,1.28A6.84,6.84,0,0,0,213.71,182.62Z" transform="translate(-154.14 -25.77)" fill="#242424"/><path d="M253,183.5h-1.57V170.16q0-4.92-1.4-7.2a4.84,4.84,0,0,0-4.44-2.28,9.17,9.17,0,0,0-3.22.6,11.13,11.13,0,0,0-3,1.66,12.24,12.24,0,0,0-2.39,2.48,9.32,9.32,0,0,0-1.49,3.13V183.5H234V159.58h1.52v6a11.24,11.24,0,0,1,1.84-2.6,11.64,11.64,0,0,1,2.48-2,13.12,13.12,0,0,1,2.92-1.29,10.88,10.88,0,0,1,3.16-.46,6,6,0,0,1,5.45,2.69Q253,164.6,253,170Z" transform="translate(-154.14 -25.77)" fill="#242424"/><path d="M267.81,184a8,8,0,0,1-3.08-.58,7.85,7.85,0,0,1-2.49-1.56A7.06,7.06,0,0,1,260,176.6a5.42,5.42,0,0,1,.73-2.78,6.87,6.87,0,0,1,2-2.19,10.26,10.26,0,0,1,3.13-1.43,15.11,15.11,0,0,1,4-.5A26.78,26.78,0,0,1,274,170a18.15,18.15,0,0,1,3.7,1v-2.58a7.93,7.93,0,0,0-2-5.73,7.25,7.25,0,0,0-5.49-2.14,10.56,10.56,0,0,0-3.73.76,17.5,17.5,0,0,0-3.95,2.19l-.74-1.15c3.07-2.09,5.9-3.13,8.51-3.13a8.8,8.8,0,0,1,6.6,2.48,9.37,9.37,0,0,1,2.42,6.81V181c0,.68.27,1,.82,1v1.47a.77.77,0,0,1-.25,0h-.21a1.71,1.71,0,0,1-1.31-.57,2,2,0,0,1-.53-1.4v-2.12a11,11,0,0,1-4.27,3.34A13.75,13.75,0,0,1,267.81,184Zm.18-1.34a13.11,13.11,0,0,0,3.43-.46,12.13,12.13,0,0,0,3.1-1.26,8.62,8.62,0,0,0,2.26-1.86,3.51,3.51,0,0,0,.87-2.26v-4.51a21.08,21.08,0,0,0-7.63-1.38,13.26,13.26,0,0,0-3.45.42,9.12,9.12,0,0,0-2.7,1.15,5.43,5.43,0,0,0-1.74,1.77,4.36,4.36,0,0,0-.62,2.32,5.6,5.6,0,0,0,.5,2.39,6.36,6.36,0,0,0,1.38,1.94,6.18,6.18,0,0,0,2.05,1.28A6.84,6.84,0,0,0,268,182.62Z" transform="translate(-154.14 -25.77)" fill="#242424"/><path d="M326.32,175a8.07,8.07,0,0,1-.67,3.29,8.57,8.57,0,0,1-4.51,4.51,7.93,7.93,0,0,1-3.24.67H302.67V150.84h14.82a6.45,6.45,0,0,1,3.08.73,8,8,0,0,1,2.35,1.91,9,9,0,0,1,1.49,2.67,9.05,9.05,0,0,1,.53,3,8.77,8.77,0,0,1-1.24,4.56,7.37,7.37,0,0,1-3.45,3,8.68,8.68,0,0,1,2.5,1.22,8.79,8.79,0,0,1,1.94,1.91,8.61,8.61,0,0,1,1.22,2.42A9.16,9.16,0,0,1,326.32,175Zm-22-22.72v14h12.64a5.74,5.74,0,0,0,2.6-.59,6.58,6.58,0,0,0,2-1.59,7.72,7.72,0,0,0,1.33-2.23,7.12,7.12,0,0,0,.49-2.58,7.8,7.8,0,0,0-.46-2.64,7.28,7.28,0,0,0-1.27-2.23,6,6,0,0,0-1.93-1.54,5.36,5.36,0,0,0-2.51-.58Zm20.46,22.59a7.33,7.33,0,0,0-.5-2.69,7.58,7.58,0,0,0-1.38-2.3,6.74,6.74,0,0,0-2.07-1.59,5.69,5.69,0,0,0-2.58-.6H304.29V182H317.9a6.07,6.07,0,0,0,2.67-.6,7.35,7.35,0,0,0,2.18-1.61,7.75,7.75,0,0,0,1.48-2.3A6.88,6.88,0,0,0,324.75,174.9Z" transform="translate(-154.14 -25.77)" fill="#242424"/><path d="M341.5,184a6.56,6.56,0,0,1-5.71-2.72c-1.28-1.8-1.93-4.49-1.93-8.05V159.58h1.57V173q0,9.48,6.39,9.48a9.2,9.2,0,0,0,3.17-.58,10.38,10.38,0,0,0,2.88-1.59,10.88,10.88,0,0,0,2.3-2.43,12,12,0,0,0,1.54-3.13V159.58h1.56V181c0,.68.28,1,.83,1v1.47a2,2,0,0,1-.46,0,1.75,1.75,0,0,1-1.29-.57,2,2,0,0,1-.55-1.4v-4a12,12,0,0,1-4.32,4.65A11.24,11.24,0,0,1,341.5,184Z" transform="translate(-154.14 -25.77)" fill="#242424"/><path d="M373.38,161.05a9.57,9.57,0,0,0-5.75,2.09,10.27,10.27,0,0,0-3.41,5.32v15h-1.56V159.58h1.52v6.07a11.51,11.51,0,0,1,3.31-4.14,8.88,8.88,0,0,1,4.41-1.89c.31,0,.59,0,.85,0h.63Z" transform="translate(-154.14 -25.77)" fill="#242424"/><path d="M397.16,183.5l-9.75-13.25-6.12,5.57v7.68h-1.57V149.92h1.57V174l15.5-14.31h1.89l-10.17,9.57L399,183.5Z" transform="translate(-154.14 -25.77)" fill="#242424"/><path d="M413.9,184a10.61,10.61,0,0,1-4.55-1,11.53,11.53,0,0,1-3.7-2.72,12.62,12.62,0,0,1-2.49-4,13,13,0,0,1-.9-4.85,12.8,12.8,0,0,1,.88-4.74,11.79,11.79,0,0,1,2.44-3.86,11.63,11.63,0,0,1,3.63-2.62,10.44,10.44,0,0,1,4.51-1,10.87,10.87,0,0,1,4.6,1,11.4,11.4,0,0,1,3.68,2.64,12.58,12.58,0,0,1,2.46,3.93,12.83,12.83,0,0,1,.9,4.79v.37a.6.6,0,0,1-.05.32H403.87a12.81,12.81,0,0,0,1,4.12,11,11,0,0,0,2.21,3.28,10.27,10.27,0,0,0,3.13,2.19,8.89,8.89,0,0,0,3.74.8,9.74,9.74,0,0,0,2.56-.34,9.9,9.9,0,0,0,2.37-1,8.33,8.33,0,0,0,1.93-1.54,8,8,0,0,0,1.33-2l1.43.37a8.29,8.29,0,0,1-1.47,2.33,9.54,9.54,0,0,1-2.28,1.84,12.72,12.72,0,0,1-2.83,1.19A11.27,11.27,0,0,1,413.9,184Zm9.89-13.07a12.07,12.07,0,0,0-1-4.14,10.92,10.92,0,0,0-2.19-3.26,9.84,9.84,0,0,0-3.1-2.14,9.35,9.35,0,0,0-3.78-.76,9.15,9.15,0,0,0-3.77.78,9.67,9.67,0,0,0-3.06,2.16,10.82,10.82,0,0,0-2.11,3.27,12.43,12.43,0,0,0-.95,4.09Z" transform="translate(-154.14 -25.77)" fill="#242424"/><path d="M215.41,207.05h-.48V203a4,4,0,0,0-.46-2.18,1.53,1.53,0,0,0-1.39-.7,2.36,2.36,0,0,0-.92.18,2.85,2.85,0,0,0-.79.5,3.09,3.09,0,0,0-.61.76,3.71,3.71,0,0,0-.41,1v4.54h-.47V203a4.12,4.12,0,0,0-.45-2.19,1.52,1.52,0,0,0-1.39-.69,2.47,2.47,0,0,0-1.69.65,3.63,3.63,0,0,0-1,1.74v4.55h-.48v-7.28h.47v1.82a3.6,3.6,0,0,1,1.19-1.43,2.79,2.79,0,0,1,1.61-.5,2.05,2.05,0,0,1,1.5.56,2.4,2.4,0,0,1,.7,1.48,3.22,3.22,0,0,1,2.88-2,1.86,1.86,0,0,1,1.69.83,4.53,4.53,0,0,1,.54,2.44Z" transform="translate(-154.14 -25.77)" fill="#242424"/><path d="M222.2,207.19a2,2,0,0,1-1.74-.83,4.22,4.22,0,0,1-.59-2.45v-4.14h.48v4.09c0,1.92.65,2.88,1.94,2.88a3,3,0,0,0,1-.17,3.37,3.37,0,0,0,1.57-1.23,3.51,3.51,0,0,0,.47-1v-4.62h.48v6.52c0,.21.08.31.25.31v.45h-.14a.5.5,0,0,1-.39-.17.61.61,0,0,1-.17-.43v-1.2a3.57,3.57,0,0,1-1.31,1.41A3.37,3.37,0,0,1,222.2,207.19Z" transform="translate(-154.14 -25.77)" fill="#242424"/><path d="M230.51,196.83H231v9a.86.86,0,0,0,.26.65.88.88,0,0,0,.65.24,2.76,2.76,0,0,0,.37,0,2.12,2.12,0,0,0,.4-.1l.12.39a4.26,4.26,0,0,1-.53.12,3,3,0,0,1-.54.06,1.17,1.17,0,0,1-.86-.33,1.19,1.19,0,0,1-.33-.89Z" transform="translate(-154.14 -25.77)" fill="#242424"/><path d="M239.27,206.71l-.14.08a2.73,2.73,0,0,1-.73.27,2.23,2.23,0,0,1-.54.06,1.47,1.47,0,0,1-.94-.32,1,1,0,0,1-.4-.88v-5.73h-1v-.42h1v-2.51H237v2.51h1.72v.42H237v5.66a.78.78,0,0,0,.31.61,1,1,0,0,0,.64.21,1.49,1.49,0,0,0,.43,0,2.22,2.22,0,0,0,.36-.11,1.47,1.47,0,0,0,.25-.12l.11-.07Z" transform="translate(-154.14 -25.77)" fill="#242424"/><path d="M242.9,198v-1.18h.48V198Zm0,9v-7.28h.48v7.28Z" transform="translate(-154.14 -25.77)" fill="#242424"/><path d="M258.58,207.05h-.48V203a4.1,4.1,0,0,0-.45-2.18,1.54,1.54,0,0,0-1.39-.7,2.41,2.41,0,0,0-.93.18,2.67,2.67,0,0,0-.78.5,3.12,3.12,0,0,0-.62.76,3.68,3.68,0,0,0-.4,1v4.54h-.48V203a4.23,4.23,0,0,0-.44-2.19,1.54,1.54,0,0,0-1.39-.69,2.49,2.49,0,0,0-1.7.65,3.62,3.62,0,0,0-1,1.74v4.55H248v-7.28h.46v1.82a3.78,3.78,0,0,1,1.19-1.43,2.81,2.81,0,0,1,1.61-.5,2.06,2.06,0,0,1,1.51.56,2.39,2.39,0,0,1,.69,1.48,3.24,3.24,0,0,1,2.88-2,1.88,1.88,0,0,1,1.7.83,4.63,4.63,0,0,1,.53,2.44Z" transform="translate(-154.14 -25.77)" fill="#242424"/><path d="M266.14,207.19a3.28,3.28,0,0,1-1.39-.3,3.52,3.52,0,0,1-1.12-.83,3.81,3.81,0,0,1-.76-1.22,4.13,4.13,0,0,1,0-2.91,3.71,3.71,0,0,1,.75-1.18,3.5,3.5,0,0,1,1.1-.8,3.3,3.3,0,0,1,1.37-.29,3.4,3.4,0,0,1,1.4.29,3.5,3.5,0,0,1,1.12.81,3.9,3.9,0,0,1,1,2.65v.11a.16.16,0,0,1,0,.1h-6.52a3.65,3.65,0,0,0,.31,1.25,3.57,3.57,0,0,0,.67,1,3.2,3.2,0,0,0,1,.67,2.78,2.78,0,0,0,1.14.24,2.86,2.86,0,0,0,.77-.1,3.12,3.12,0,0,0,.73-.3,2.44,2.44,0,0,0,.58-.47,2.21,2.21,0,0,0,.41-.6l.43.12a2.49,2.49,0,0,1-.44.7,2.74,2.74,0,0,1-.7.56,3.49,3.49,0,0,1-.86.37A3.35,3.35,0,0,1,266.14,207.19Zm3-4a4,4,0,0,0-.29-1.26,3.26,3.26,0,0,0-.67-1,2.88,2.88,0,0,0-.94-.65,3,3,0,0,0-1.15-.23,2.75,2.75,0,0,0-1.15.24,2.84,2.84,0,0,0-.93.65,3.12,3.12,0,0,0-.64,1,3.63,3.63,0,0,0-.29,1.24Z" transform="translate(-154.14 -25.77)" fill="#242424"/><path d="M276.56,207.19a3.1,3.1,0,0,1-1.4-.32A3.91,3.91,0,0,1,274,206a4.06,4.06,0,0,1-.73-1.2,3.83,3.83,0,0,1-.25-1.38,4,4,0,0,1,.25-1.44,3.92,3.92,0,0,1,.7-1.21,3.4,3.4,0,0,1,1.06-.82,2.91,2.91,0,0,1,1.35-.31,3.1,3.1,0,0,1,.92.14,3.34,3.34,0,0,1,.81.38,4.58,4.58,0,0,1,.67.57,4,4,0,0,1,.51.67v-4.59h.47v9.46c0,.21.09.31.26.31v.45h-.12a.58.58,0,0,1-.42-.18.64.64,0,0,1-.16-.43v-.88a3.39,3.39,0,0,1-.54.66,3.66,3.66,0,0,1-.68.51,3.51,3.51,0,0,1-.77.33A2.84,2.84,0,0,1,276.56,207.19Zm.05-.45a2.39,2.39,0,0,0,.87-.17,3.53,3.53,0,0,0,.86-.45,2.84,2.84,0,0,0,.67-.67,1.75,1.75,0,0,0,.32-.81v-2.5a2.81,2.81,0,0,0-.46-.8,3.5,3.5,0,0,0-.69-.64,3.45,3.45,0,0,0-.83-.43,2.46,2.46,0,0,0-.86-.16,2.58,2.58,0,0,0-1.22.28,3,3,0,0,0-.93.76,3.63,3.63,0,0,0-.58,1.06,3.7,3.7,0,0,0-.21,1.23,3.3,3.3,0,0,0,.23,1.25,3.34,3.34,0,0,0,.66,1.05,3.06,3.06,0,0,0,1,.73A2.71,2.71,0,0,0,276.61,206.74Z" transform="translate(-154.14 -25.77)" fill="#242424"/><path d="M284.45,198v-1.18h.48V198Zm0,9v-7.28h.48v7.28Z" transform="translate(-154.14 -25.77)" fill="#242424"/><path d="M291.33,207.19a2.42,2.42,0,0,1-.94-.18,2.37,2.37,0,0,1-.76-.47,2.23,2.23,0,0,1-.5-.71A2.13,2.13,0,0,1,289,205a1.66,1.66,0,0,1,.22-.85,2.16,2.16,0,0,1,.62-.66,3.33,3.33,0,0,1,.95-.44,4.69,4.69,0,0,1,1.22-.15,7.29,7.29,0,0,1,1.23.1,5,5,0,0,1,1.13.29v-.78a2.46,2.46,0,0,0-.62-1.75,2.22,2.22,0,0,0-1.67-.65,3.26,3.26,0,0,0-1.14.23,5.56,5.56,0,0,0-1.2.67l-.23-.35a4.76,4.76,0,0,1,2.59-1,2.69,2.69,0,0,1,2,.75,2.87,2.87,0,0,1,.74,2.08v3.8c0,.21.08.31.25.31v.45h-.14a.51.51,0,0,1-.4-.17.6.6,0,0,1-.16-.43v-.64a3.34,3.34,0,0,1-1.3,1A4.14,4.14,0,0,1,291.33,207.19Zm.05-.41a3.72,3.72,0,0,0,1-.14,3.85,3.85,0,0,0,.95-.38,2.45,2.45,0,0,0,.69-.57,1.07,1.07,0,0,0,.26-.68v-1.38a6.41,6.41,0,0,0-2.32-.42,4.19,4.19,0,0,0-1.05.13,2.67,2.67,0,0,0-.82.35,1.6,1.6,0,0,0-.53.54,1.3,1.3,0,0,0-.19.71,1.72,1.72,0,0,0,.15.72,1.77,1.77,0,0,0,.42.59,1.91,1.91,0,0,0,.62.39A2,2,0,0,0,291.38,206.78Z" transform="translate(-154.14 -25.77)" fill="#242424"/><path d="M305.47,208.87V196.2h.44v12.67Z" transform="translate(-154.14 -25.77)" fill="#242424"/><path d="M319.65,207.19a3.13,3.13,0,0,1-1.4-.32,3.91,3.91,0,0,1-1.12-.85,3.84,3.84,0,0,1-.72-1.2,3.64,3.64,0,0,1-.26-1.38,4,4,0,0,1,.25-1.44,3.92,3.92,0,0,1,.7-1.21,3.4,3.4,0,0,1,1.06-.82,2.91,2.91,0,0,1,1.35-.31,3.1,3.1,0,0,1,.92.14,3.34,3.34,0,0,1,.81.38,4.58,4.58,0,0,1,.67.57,4,4,0,0,1,.51.67v-4.59h.48v9.46c0,.21.08.31.25.31v.45H323a.54.54,0,0,1-.42-.18.6.6,0,0,1-.17-.43v-.88a3.39,3.39,0,0,1-.54.66,3.66,3.66,0,0,1-.68.51,3.51,3.51,0,0,1-.77.33A2.84,2.84,0,0,1,319.65,207.19Zm.05-.45a2.39,2.39,0,0,0,.87-.17,3.36,3.36,0,0,0,.86-.45,2.84,2.84,0,0,0,.67-.67,1.65,1.65,0,0,0,.32-.81v-2.5a2.59,2.59,0,0,0-.46-.8,3.5,3.5,0,0,0-.69-.64,3.45,3.45,0,0,0-.83-.43,2.46,2.46,0,0,0-.86-.16,2.58,2.58,0,0,0-1.22.28,3,3,0,0,0-.92.76,3.44,3.44,0,0,0-.59,1.06,3.7,3.7,0,0,0-.21,1.23,3.31,3.31,0,0,0,.24,1.25,3.15,3.15,0,0,0,.65,1.05,3.18,3.18,0,0,0,1,.73A2.71,2.71,0,0,0,319.7,206.74Z" transform="translate(-154.14 -25.77)" fill="#242424"/><path d="M330.57,207.19a3.24,3.24,0,0,1-1.39-.3,3.67,3.67,0,0,1-1.13-.83,3.79,3.79,0,0,1-.75-1.22,4,4,0,0,1-.27-1.47,3.76,3.76,0,0,1,.26-1.44,3.87,3.87,0,0,1,.74-1.18,3.66,3.66,0,0,1,1.11-.8,3.3,3.3,0,0,1,1.37-.29,3.4,3.4,0,0,1,1.4.29,3.61,3.61,0,0,1,1.12.81,3.76,3.76,0,0,1,.75,1.19,4,4,0,0,1,.27,1.46v.11c0,.06,0,.09,0,.1h-6.52a3.65,3.65,0,0,0,.31,1.25,3.37,3.37,0,0,0,.67,1,3.15,3.15,0,0,0,.95.67,2.78,2.78,0,0,0,1.14.24,2.94,2.94,0,0,0,1.5-.4,2.49,2.49,0,0,0,.59-.47,2.45,2.45,0,0,0,.41-.6l.43.12a2.32,2.32,0,0,1-.45.7,2.53,2.53,0,0,1-.69.56,3.66,3.66,0,0,1-.86.37A3.4,3.4,0,0,1,330.57,207.19Zm3-4a3.75,3.75,0,0,0-.3-1.26,3.24,3.24,0,0,0-.66-1,2.93,2.93,0,0,0-.95-.65,2.87,2.87,0,0,0-1.14-.23,2.72,2.72,0,0,0-1.15.24,2.65,2.65,0,0,0-.93.65,3.32,3.32,0,0,0-.65,1,3.62,3.62,0,0,0-.28,1.24Z" transform="translate(-154.14 -25.77)" fill="#242424"/><path d="M340.21,207.19a4.2,4.2,0,0,1-1.56-.28,3.51,3.51,0,0,1-1.29-.87l.26-.32a4.78,4.78,0,0,0,1.21.8,3.38,3.38,0,0,0,1.37.26,2.85,2.85,0,0,0,1.65-.43,1.4,1.4,0,0,0,.63-1.22,1.09,1.09,0,0,0-.16-.61,1.39,1.39,0,0,0-.47-.42,4,4,0,0,0-.76-.31l-1-.27c-.4-.09-.74-.18-1-.27a2.76,2.76,0,0,1-.73-.32,1.14,1.14,0,0,1-.44-.46,1.6,1.6,0,0,1-.14-.71,2,2,0,0,1,.21-.94,1.88,1.88,0,0,1,.57-.65,2.65,2.65,0,0,1,.83-.39,4,4,0,0,1,1-.12,3.75,3.75,0,0,1,1.52.29,2.3,2.3,0,0,1,.93.74l-.33.24a1.87,1.87,0,0,0-.9-.64,3.58,3.58,0,0,0-1.27-.23,3.1,3.1,0,0,0-.81.1,1.8,1.8,0,0,0-.66.29,1.51,1.51,0,0,0-.46.51,1.54,1.54,0,0,0-.16.73,1.19,1.19,0,0,0,.11.56.88.88,0,0,0,.35.37,2.58,2.58,0,0,0,.62.25l.9.23c.45.11.85.21,1.19.31a3.83,3.83,0,0,1,.88.36,1.36,1.36,0,0,1,.75,1.31,1.92,1.92,0,0,1-.2.87,2,2,0,0,1-.55.67,2.71,2.71,0,0,1-.87.42A4,4,0,0,1,340.21,207.19Z" transform="translate(-154.14 -25.77)" fill="#242424"/><path d="M347,198v-1.18h.47V198Zm0,9v-7.28h.47v7.28Z" transform="translate(-154.14 -25.77)" fill="#242424"/><path d="M355.09,207.18a3,3,0,0,1-1.39-.33,3.54,3.54,0,0,1-1.11-.84,4,4,0,0,1-1-2.57,4.19,4.19,0,0,1,.24-1.42,3.92,3.92,0,0,1,.7-1.21,3.38,3.38,0,0,1,1.07-.84,3,3,0,0,1,1.38-.31,2.91,2.91,0,0,1,.89.14,3.38,3.38,0,0,1,.79.38,3.5,3.5,0,0,1,.67.56,6.13,6.13,0,0,1,.56.68v-1.65h.45v7.5a2.66,2.66,0,0,1-.28,1.28,2.79,2.79,0,0,1-.72.91,3.22,3.22,0,0,1-1.06.54,4.73,4.73,0,0,1-1.26.17,4.86,4.86,0,0,1-1.14-.12,4.14,4.14,0,0,1-.88-.35,2.89,2.89,0,0,1-.66-.54,3.55,3.55,0,0,1-.5-.7l.35-.19a2.64,2.64,0,0,0,1.21,1.13,3.83,3.83,0,0,0,1.62.35,3.9,3.9,0,0,0,1.1-.15,2.58,2.58,0,0,0,.9-.47,2.26,2.26,0,0,0,.62-.78,2.45,2.45,0,0,0,.22-1.08v-1.7a3.06,3.06,0,0,1-.54.65,3.36,3.36,0,0,1-.68.51,3.43,3.43,0,0,1-.76.33A2.79,2.79,0,0,1,355.09,207.18Zm.08-.44a2.44,2.44,0,0,0,.95-.19,3.1,3.1,0,0,0,.85-.49,2.79,2.79,0,0,0,.62-.67,1.67,1.67,0,0,0,.29-.75v-2.5a3.22,3.22,0,0,0-.47-.82,3.17,3.17,0,0,0-.68-.64,3.12,3.12,0,0,0-.81-.42,2.67,2.67,0,0,0-.88-.15,2.56,2.56,0,0,0-1.25.29,3,3,0,0,0-.92.77,3.69,3.69,0,0,0-.58,1.07,3.86,3.86,0,0,0-.19,1.2,3.46,3.46,0,0,0,.89,2.3,3.18,3.18,0,0,0,1,.73A2.75,2.75,0,0,0,355.17,206.74Z" transform="translate(-154.14 -25.77)" fill="#242424"/><path d="M368.77,207.05h-.47V203a4.35,4.35,0,0,0-.43-2.19,1.48,1.48,0,0,0-1.35-.69,2.83,2.83,0,0,0-1,.18,3.3,3.3,0,0,0-.9.5,3.76,3.76,0,0,0-.73.76,3,3,0,0,0-.46.95v4.55H363v-7.28h.46v1.82a3.34,3.34,0,0,1,.56-.79,3.4,3.4,0,0,1,.75-.61,3.89,3.89,0,0,1,.89-.39,3.54,3.54,0,0,1,1-.14,1.8,1.8,0,0,1,1.66.82,4.69,4.69,0,0,1,.51,2.45Z" transform="translate(-154.14 -25.77)" fill="#242424"/><rect x="225.88" y="42.98" width="83.12" height="83.12" transform="translate(-16.04 -190.11) rotate(45)" fill="#90aa86" opacity="0.8"/><rect x="251.01" y="42.98" width="83.12" height="83.12" transform="translate(-8.67 -207.88) rotate(45)" fill="#e2d5b3" opacity="0.8"/><rect x="238.13" y="42.98" width="83.12" height="83.12" transform="translate(-12.45 -198.78) rotate(45)" fill="#824c71" opacity="0.8"/></svg>